<svg width="770" height="539" viewBox="0 0 770 539" fill="none" xmlns="http://www.w3.org/2000/svg">
	<path
		d="M497.234 1.12763C495.678 2.35016 493.263 7.72147 492.797 10.994C490.209 29.1836 497.634 67.3002 514.463 122.227C524.523 155.058 533.529 179.076 547.231 209.613C549.345 214.324 551.047 218.217 551.013 218.262C550.979 218.308 549.517 218.069 547.763 217.731C538.644 215.975 532.026 216.428 526.275 219.202C523.537 220.523 521.76 221.917 517.289 226.252C514.224 229.224 510.665 232.41 509.381 233.332C506.521 235.384 502.218 236.365 497.568 236.022C495.811 235.893 493.194 235.9 491.752 236.039C489.439 236.261 488.9 236.52 487.17 238.245C485.526 239.884 484.923 241.04 483.432 245.413C481.229 251.874 479.515 254.634 476.906 255.921C472.792 257.951 470.281 257.283 453.548 249.702C442.372 244.639 439.641 243.587 434.818 242.49C429.931 241.379 426.794 241.373 422.646 242.467C418.337 243.604 414.857 245.815 408.411 251.509C405.49 254.089 401.766 257.316 400.134 258.68C396.025 262.116 393.508 265.132 390.113 270.685C386.332 276.87 383.476 279.454 379.955 279.874C377.79 280.133 377.232 280.019 375.64 278.999C374.635 278.354 373.119 276.713 372.272 275.352C368.501 269.293 367.379 268.109 364.889 267.566C362.697 267.089 362.462 267.132 360.762 268.329C356.53 271.308 354.349 276.279 351.751 288.869C350.01 297.306 348.893 300.853 346.832 304.494C345.399 307.025 344.909 307.492 342.77 308.375C337.207 310.668 331.641 307.478 307.492 288.156C304.252 285.564 302.388 284.434 300.117 283.687L297.077 282.687L294.64 283.62C290.008 285.393 287.586 289.99 285.768 300.457C284.126 309.914 283.45 312.597 281.752 316.381C279.863 320.591 277.268 324.242 274.585 326.464C271.946 328.65 270.87 329.197 269.205 329.197C267.993 329.197 267.758 328.973 267.286 327.373C266.537 324.833 267.524 321.104 271.404 311.814C273.107 307.735 275.587 301.06 276.915 296.981C279.953 287.646 282.858 279.538 287.012 268.793C293.65 251.625 297.286 238.966 299.354 225.828C300.244 220.18 300.41 217.404 300.398 208.445C300.376 193.288 299.013 186.229 295.079 180.905C292.62 177.577 292.452 177.444 287.99 175.302C282.313 172.576 276.619 171.867 269.613 173.013C256.687 175.129 245.113 182.566 234.736 195.425C224.012 208.716 218.093 218.465 211.748 233.293C201.991 256.094 196.841 286.873 197.683 317.344C197.844 323.191 197.89 327.884 197.785 327.774C197.679 327.664 196.222 322.575 194.547 316.465C188.806 295.522 185.925 286.913 177.855 266.576C169.996 246.772 163.478 233.427 149.01 207.518C141.227 193.578 139.942 191.467 139.372 191.682C139.093 191.787 138.927 192.144 139.004 192.475C139.469 194.466 145.546 207.022 151.448 218.185C167.459 248.467 177.544 271.35 185.667 295.822C189.652 307.828 198.077 337.797 199.601 345.389C200.949 352.1 201.302 352.947 202.672 352.749C203.548 352.623 203.665 352.327 203.642 350.287C203.628 349.013 203.271 345.05 202.848 341.48C199.73 315.121 200.888 285.503 205.978 261.478C211.67 234.608 225.599 207.884 243.191 190.083C251.833 181.337 262.79 176.052 273.548 175.438C279.355 175.107 282.955 175.773 287.394 177.998C293.132 180.875 295.53 185.09 297.067 195.002C297.826 199.897 297.832 216.116 297.077 221.424C294.694 238.183 292.097 247.106 281.565 274.731C279.815 279.32 276.937 287.351 275.169 292.577C271.869 302.33 270.74 305.236 267.188 313.115C266.061 315.614 264.693 319.495 264.147 321.738L263.155 325.817L264.557 328.957L265.959 332.098L268.79 331.773C272.157 331.386 272.57 331.183 275.667 328.402C278.502 325.856 281.499 321.486 283.519 316.952C285.261 313.042 285.669 311.454 287.177 302.717C289.099 291.58 291.25 286.938 295.083 285.653C298.607 284.472 301.551 285.976 310.458 293.504C322.93 304.046 335.183 311.582 339.849 311.582C340.594 311.582 342.42 311.046 343.908 310.391C346.282 309.345 346.847 308.826 348.523 306.155C350.727 302.644 352.529 297.173 354.271 288.705C356.297 278.856 358.6 273.28 361.571 271.029C362.677 270.191 363.212 270.067 364.354 270.386C365.729 270.77 366.122 271.232 370.93 278.102C371.839 279.401 373.174 280.509 374.812 281.325C377.182 282.506 377.458 282.543 380.272 282.053C384.517 281.315 387.494 278.702 392.337 271.466C396.445 265.328 398.052 263.72 408.895 254.896C419.73 246.079 422.3 244.955 430.554 245.422C437.327 245.806 437.086 245.724 461.261 255.773C470.748 259.716 473.721 260.158 477.746 258.225C481.211 256.561 483.345 253.368 485.704 246.318C487.1 242.145 487.768 240.803 488.991 239.712C490.517 238.352 490.563 238.343 496.329 238.327C499.521 238.318 503.364 238.04 504.87 237.709C508.12 236.994 513.027 233.92 516.051 230.704C521.98 224.398 527.905 220.729 533.669 219.794C538.508 219.009 552.49 220.739 552.96 222.181C553.073 222.529 555.606 227.794 558.589 233.88C561.571 239.966 563.939 245.019 563.85 245.109C563.762 245.198 557.746 247.344 550.481 249.876C489.643 271.083 440.33 291.865 388.999 317.928C332.774 346.477 284.294 376.989 237.668 413.173C211.679 433.342 193.695 448.536 168.551 471.566C166.966 473.017 165.99 473.666 166.205 473.125C174.146 453.15 178.974 431.707 181.805 403.826C182.948 392.581 183.226 356.165 182.258 344.725C179.991 317.951 174.471 292.607 166.43 272.053C156.15 245.776 143.855 227.17 129.741 216.536C121.273 210.156 113.544 207.286 104.828 207.286C94.7185 207.286 88.3442 211.002 84.0773 219.383C83 221.499 83.4789 222.776 84.5907 220.751C86.1663 217.882 89.9316 214.188 92.7711 212.726C98.0029 210.032 103.549 209.635 112.145 211.341C124.292 213.75 138.97 226.88 149.721 244.954C167.974 275.638 179.022 316.787 180.104 358.117C180.981 391.638 178.533 417.411 171.925 444.224C169.124 455.591 166.38 463.556 161.214 475.314L158.827 480.747L151.079 488.988C129.911 511.502 117.364 526.444 114.644 532.378C113.357 535.185 113.275 536.278 114.246 537.686C116.023 540.262 120.065 538.038 129.408 529.344C142.706 516.97 149.274 508.312 157.563 492.229L161.069 485.425L168.678 478.067C201.652 446.175 246.928 409.586 286.727 382.663C354.414 336.876 431.881 298.015 520.838 265.221C535.065 259.977 566.211 249.25 566.418 249.524C566.491 249.621 568.055 252.516 569.893 255.958C580.114 275.097 587.832 286.608 596.545 295.706C601.226 300.593 603.217 301.934 603.217 300.197C603.217 299.798 601.037 297.006 598.372 293.992C591.634 286.372 587.683 280.637 580.665 268.288C577.849 263.334 570.359 248.881 570.359 248.403C570.359 247.543 609.201 236.199 644.384 226.783C682.767 216.51 701.285 213.236 728.49 211.912C741.2 211.293 762.289 211.109 764.087 211.601C764.926 211.83 766.035 212.772 766.953 214.034C767.777 215.167 768.656 216.093 768.907 216.093C770.849 216.093 767.861 210.406 765.512 209.629C762.619 208.673 757.318 208.255 741.496 207.736C703.883 206.502 686.838 209.424 618.049 228.895C597.096 234.826 573.015 242.08 568.714 243.756C568.233 243.944 566.794 241.355 563.277 233.976C560.646 228.457 558.493 223.716 558.493 223.441C558.493 223.119 559.183 223.039 560.433 223.215C566.239 224.036 567.137 224.043 570.471 223.289C573.835 222.529 573.993 222.431 575.997 219.84C578.952 216.019 579.918 211.873 580.257 201.539C581.486 164.115 571.091 118.872 547.763 60.1127C540.233 41.1472 533.273 28.7394 523.998 17.7467C515.64 7.84082 508.068 1.60672 503.613 0.962183C499.984 0.43725 498.048 0.487362 497.234 1.12763ZM508.585 7.42833C513.401 10.6541 522.296 19.1675 526.304 24.3871C533.793 34.1401 540.17 45.9734 546.329 61.5478C559.223 94.1526 568.109 122.656 572.853 146.631C576.434 164.725 577.423 174.838 577.428 193.38C577.432 206.169 577.326 208.413 576.57 211.458C576.096 213.37 575.443 215.456 575.12 216.093C572.889 220.487 569.273 221.671 561.633 220.511C559.05 220.119 556.803 219.642 556.637 219.452C556.248 219.005 548.971 202.244 545.015 192.685C532.355 162.096 521.334 129.013 510.138 87.9954C498.842 46.615 494.414 15.1264 498.692 6.60924C499.624 4.7535 499.684 4.71991 502.091 4.71991C504.314 4.71991 504.919 4.97233 508.585 7.42833ZM149.311 498.504C145.763 504.715 137.895 514.492 131.99 520.03C124.652 526.91 124.916 526.234 133.56 516.002C137.378 511.483 149.319 497.951 149.502 497.936C149.579 497.929 149.494 498.185 149.311 498.504ZM392.904 76.1171C356.376 79.2185 328.469 85.1775 291.062 97.8635C214.996 123.661 127.819 168.486 75.699 208.599C54.455 224.95 29.457 247.253 16.6459 261.288C9.78093 268.809 0.106411 280.889 0.570668 281.36C0.745576 281.538 2.95507 279.389 5.48067 276.585C19.3795 261.152 42.428 239.548 62.6508 222.997C93.7818 197.517 131.224 173.934 179.252 149.553C247.717 114.797 312.394 90.9095 360.43 82.6362C373.048 80.4628 397.744 77.4955 403.212 77.4955C404.448 77.4955 405.12 76.1976 404.194 75.6016C403.843 75.3763 403.351 75.2141 403.1 75.241C402.849 75.2681 398.261 75.6622 392.904 76.1171Z"
		fill="black" />
</svg>
